<svg xmlns="http://www.w3.org/2000/svg" viewBox="0 0 800 500">
  <defs>
    <linearGradient id="gradGraduate" x1="0" y1="0" x2="1" y2="1">
      <stop offset="0" stop-color="#f7d7ff" />
      <stop offset="1" stop-color="#ffe3d9" />
    </linearGradient>
  </defs>
  <rect width="800" height="500" fill="url(#gradGraduate)" rx="48" />
  <g fill="#d76b8b" opacity="0.12">
    <path d="M160 280c82-48 180-48 262 0 50 32 100 28 162-12 28-18 60-16 88 4v60c-40 68-120 102-204 92-64-6-122-34-148-60-32 32-86 60-150 66-96 8-180-38-212-126 38-14 90-18 142-24z" />
  </g>
  <text x="400" y="250" fill="#7a2d46" font-size="48" font-family="'Noto Sans JP', sans-serif" text-anchor="middle">Replace with image</text>
  <text x="400" y="310" fill="#7a2d46" font-size="32" font-family="'Noto Sans JP', sans-serif" text-anchor="middle">(Graduate Story)</text>
</svg>
